<svg xmlns="http://www.w3.org/2000/svg" fill="none" viewBox="0 0 48 48" id="Brightness-Auto-Fill--Streamline-Rounded-Fill-Material"><desc>Brightness Auto Fill Streamline Icon: https://streamlinehq.com</desc><path fill="#000000" d="M15.4998 32.7498h2.75l1 -2.9c0.2667 -0.7667 0.834 -1.3833 1.702 -1.85 0.868 -0.4667 2.3493 -0.7 4.444 -0.7 0.8027 0 1.529 0.2267 2.179 0.68 0.65 0.4537 1.1083 1.0603 1.375 1.82l0.7 2.15c0.0587 0.263 0.197 0.4622 0.415 0.5975 0.2177 0.135 0.4647 0.2025 0.741 0.2025h-0.0205c0.443 0 0.7913 -0.1842 1.045 -0.5525 0.2533 -0.3687 0.2932 -0.7512 0.1195 -1.1475l-6.45 -17.15c-0.0667 -0.2367 -0.225 -0.4208 -0.475 -0.5525 -0.25 -0.1317 -0.716 -0.1975 -1.398 -0.1975 -0.218 0 -0.4257 0.0675 -0.623 0.2025 -0.197 0.135 -0.3317 0.3175 -0.404 0.5475l-7.1 18.85Zm5.35 -7.85 3.0645 -8.15h0.2355l3.1 8.15h-6.4Zm-3.542 15.1h-6.308c-0.825 0 -1.53116 -0.2938 -2.11849 -0.8815 -0.58767 -0.5873 -0.88151 -1.2935 -0.88151 -2.1185v-6.2795l-4.6 -4.6205c-0.3 -0.3 -0.51666 -0.6302 -0.65 -0.9905 -0.13333 -0.3607 -0.2 -0.7273 -0.2 -1.1 0 -0.373 0.06667 -0.7428 0.2 -1.1095 0.13334 -0.3667 0.35 -0.7 0.65 -1l4.6 -4.6205v-6.2795c0 -0.825 0.29384 -1.53133 0.88151 -2.119 0.58733 -0.58733 1.29349 -0.881 2.11849 -0.881h6.2795l4.6205 -4.6c0.3 -0.3 0.6417 -0.51666 1.025 -0.65 0.3833 -0.13333 0.7617 -0.2 1.135 -0.2 0.373 0 0.74 0.07834 1.101 0.23501 0.3607 0.15633 0.6903 0.37799 0.989 0.66499l4.55 4.55h6.3c0.825 0 1.5313 0.29367 2.119 0.881 0.5873 0.58767 0.881 1.294 0.881 2.119v6.2795l4.6 4.6205c0.3 0.3 0.5167 0.6302 0.65 0.9905 0.1333 0.3607 0.2 0.7273 0.2 1.1 0 0.373 -0.0667 0.7428 -0.2 1.1095 -0.1333 0.3667 -0.35 0.7 -0.65 1l-4.6 4.6205v6.2795c0 0.825 -0.2937 1.5312 -0.881 2.1185 -0.5877 0.5877 -1.294 0.8815 -2.119 0.8815h-6.3l-4.55 4.5c-0.2987 0.271 -0.6283 0.4805 -0.989 0.6285 -0.361 0.1477 -0.728 0.2215 -1.101 0.2215 -0.3733 0 -0.7427 -0.0738 -1.108 -0.2215 -0.3657 -0.148 -0.6997 -0.3575 -1.002 -0.6285l-4.642 -4.5Z" stroke-width="1"></path></svg>