<svg xmlns="http://www.w3.org/2000/svg" fill="none" viewBox="0 0 48 48" id="Brightness-High-Fill--Streamline-Rounded-Fill-Material"><desc>Brightness High Fill Streamline Icon: https://streamlinehq.com</desc><path fill="#000000" d="M17.3078 39.9998h-6.308c-0.825 0 -1.53116 -0.2938 -2.11849 -0.8815 -0.58767 -0.5873 -0.88151 -1.2935 -0.88151 -2.1185v-6.2795l-4.6 -4.6205c-0.3 -0.3 -0.51666 -0.6302 -0.65 -0.9905 -0.13333 -0.3607 -0.2 -0.7273 -0.2 -1.1 0 -0.373 0.06667 -0.7428 0.2 -1.1095 0.13334 -0.3667 0.35 -0.7 0.65 -1l4.6 -4.6205v-6.2795c0 -0.825 0.29384 -1.53133 0.88151 -2.119 0.58733 -0.58733 1.29349 -0.881 2.11849 -0.881h6.2795l4.6205 -4.6c0.3 -0.3 0.6417 -0.51666 1.025 -0.65 0.3833 -0.13333 0.7617 -0.2 1.135 -0.2 0.373 0 0.74 0.07834 1.101 0.23501 0.3607 0.15633 0.6903 0.37799 0.989 0.66499l4.55 4.55h6.3c0.825 0 1.5313 0.29367 2.119 0.881 0.5873 0.58767 0.881 1.294 0.881 2.119v6.2795l4.6 4.6205c0.3 0.3 0.5167 0.6302 0.65 0.9905 0.1333 0.3607 0.2 0.7273 0.2 1.1 0 0.373 -0.0667 0.7428 -0.2 1.1095 -0.1333 0.3667 -0.35 0.7 -0.65 1l-4.6 4.6205v6.2795c0 0.825 -0.2937 1.5312 -0.881 2.1185 -0.5877 0.5877 -1.294 0.8815 -2.119 0.8815h-6.3l-4.55 4.5c-0.2987 0.271 -0.6283 0.4805 -0.989 0.6285 -0.361 0.1477 -0.728 0.2215 -1.101 0.2215 -0.3733 0 -0.7427 -0.0738 -1.108 -0.2215 -0.3657 -0.148 -0.6997 -0.3575 -1.002 -0.6285l-4.642 -4.5Zm6.7445 -6.3c2.6983 0 4.9975 -0.9508 6.8975 -2.8525 1.9 -1.902 2.85 -4.202 2.85 -6.9 0 -2.6983 -0.9508 -4.9975 -2.8525 -6.8975 -1.902 -1.9 -4.202 -2.85 -6.9 -2.85 -2.6983 0 -4.9975 0.9508 -6.8975 2.8525 -1.9 1.902 -2.85 4.202 -2.85 6.9 0 2.6983 0.9508 4.9975 2.8525 6.8975 1.902 1.9 4.202 2.85 6.9 2.85Zm-0.0025 -3c-1.9 0 -3.5 -0.65 -4.8 -1.95 -1.3 -1.3 -1.95 -2.9 -1.95 -4.8s0.65 -3.5 1.95 -4.8c1.3 -1.3 2.9 -1.95 4.8 -1.95s3.5 0.65 4.8 1.95c1.3 1.3 1.95 2.9 1.95 4.8s-0.65 3.5 -1.95 4.8c-1.3 1.3 -2.9 1.95 -4.8 1.95Z" stroke-width="1"></path></svg>