<svg xmlns="http://www.w3.org/2000/svg" fill="none" viewBox="0 0 48 48" id="Dark-Mode-Fill--Streamline-Rounded-Fill-Material"><desc>Dark Mode Fill Streamline Icon: https://streamlinehq.com</desc><path fill="#000000" d="M24 42.0002c-5 0 -9.25 -1.75 -12.75 -5.25S6 29.0002 6 24.0002c0 -4.5 1.325 -8.3166 3.975 -11.45C12.625 9.41688 16.1 7.40022 20.4 6.50022c0.6667 -0.16667 1.2333 -0.18334 1.7 -0.05 0.4667 0.13333 0.8333 0.38333 1.1 0.75 0.2667 0.33333 0.3917 0.75 0.375 1.25 -0.0167 0.5 -0.1583 1.08333 -0.425 1.74998 -0.3 0.7667 -0.5333 1.55 -0.7 2.35 -0.1667 0.8 -0.25 1.6167 -0.25 2.45 0 3 1.05 5.55 3.15 7.65 2.1 2.1 4.65 3.15 7.65 3.15 0.8333 0 1.6417 -0.075 2.425 -0.225 0.7833 -0.15 1.5417 -0.3583 2.275 -0.625 0.7333 -0.2667 1.3667 -0.3833 1.9 -0.35 0.5333 0.0334 0.9667 0.1834 1.3 0.45 0.3333 0.2667 0.55 0.65 0.65 1.15 0.1 0.5 0.0667 1.1 -0.1 1.8 -0.9 4.0334 -2.9167 7.375 -6.05 10.025 -3.1333 2.65 -6.9333 3.975 -11.4 3.975Z" stroke-width="1"></path></svg>