<svg xmlns="http://www.w3.org/2000/svg" fill="none" viewBox="0 0 48 48" id="Night-Sight-Auto-Fill--Streamline-Rounded-Fill-Material"><desc>Night Sight Auto Fill Streamline Icon: https://streamlinehq.com</desc><path fill="#000000" d="M22 41.5c-4.3 0 -7.9583 -1.5083 -10.975 -4.525C8.00833 33.9583 6.5 30.3 6.5 26c0 -1.8667 0.30833 -3.6333 0.925 -5.3 0.61667 -1.6667 1.475 -3.175 2.575 -4.525 1.1 -1.35 2.4167 -2.475 3.95 -3.375 1.5333 -0.9 3.2167 -1.5 5.05 -1.8 0.6333 -0.1 1.125 0.1 1.475 0.6 0.35 0.5 0.375 1.0333 0.075 1.6 -0.4 0.7333 -0.675 1.5083 -0.825 2.325 -0.15 0.8167 -0.225 1.6417 -0.225 2.475 0 3.4667 1.2167 6.4167 3.65 8.85S28.5333 30.5 32 30.5c0.3667 0 0.7167 -0.0083 1.05 -0.025 0.3333 -0.0167 0.6833 -0.075 1.05 -0.175 0.6333 -0.2 1.175 -0.0667 1.625 0.4 0.45 0.4667 0.5583 0.9833 0.325 1.55 -1.0667 2.9 -2.9 5.1667 -5.5 6.8 -2.6 1.6333 -5.45 2.45 -8.55 2.45Zm10.9 -23.7 -1 2.85c-0.1333 0.3667 -0.3417 0.65 -0.625 0.85 -0.2833 0.2 -0.6083 0.3 -0.975 0.3 -0.5667 0 -1.025 -0.2333 -1.375 -0.7 -0.35 -0.4667 -0.425 -0.9833 -0.225 -1.55L33.75 5.2c0.1333 -0.36667 0.3583 -0.65833 0.675 -0.875C34.7417 4.10833 35.1 4 35.5 4h1.3c0.4 0 0.7583 0.10833 1.075 0.325 0.3167 0.21667 0.5417 0.50833 0.675 0.875l5.05 14.35c0.2 0.5667 0.125 1.0833 -0.225 1.55 -0.35 0.4667 -0.8083 0.7 -1.375 0.7 -0.3667 0 -0.6917 -0.1 -0.975 -0.3 -0.2833 -0.2 -0.4917 -0.4833 -0.625 -0.85l-1 -2.85h-6.5Zm0.8 -2.5h4.9l-2.45 -7.75 -2.45 7.75Z" stroke-width="1"></path></svg>