<svg xmlns="http://www.w3.org/2000/svg" fill="none" viewBox="0 0 48 48" id="Routine-Fill--Streamline-Rounded-Fill-Material"><desc>Routine Fill Streamline Icon: https://streamlinehq.com</desc><path fill="#000000" d="M24.05 37.5c-1.8077 0 -3.5345 -0.3417 -5.1805 -1.025 -1.6463 -0.6833 -3.1028 -1.6583 -4.3695 -2.925 -1.2667 -1.2667 -2.2417 -2.7232 -2.925 -4.3695 -0.6833 -1.646 -1.025 -3.3728 -1.025 -5.1805 0 -1.6057 0.275 -3.1403 0.825 -4.604 0.55 -1.464 1.325 -2.796 2.325 -3.996 0.3 -0.3667 0.7 -0.5 1.2 -0.4 0.5 0.1 0.8333 0.4 1 0.9 0.7 1.8667 1.5917 3.625 2.675 5.275 1.0833 1.65 2.325 3.175 3.725 4.575 1.4 1.4 2.925 2.6417 4.575 3.725 1.65 1.0833 3.4083 1.975 5.275 2.675 0.4667 0.1667 0.7583 0.4917 0.875 0.975 0.1167 0.4833 -0.0083 0.8917 -0.375 1.225 -1.197 1.0343 -2.528 1.8178 -3.993 2.3505 -1.4647 0.533 -3.0003 0.7995 -4.607 0.7995Zm10.5 -7.75c-0.3733 -0.1203 -0.6417 -0.3672 -0.805 -0.7405 -0.1633 -0.373 -0.1617 -0.7428 0.005 -1.1095 0.7667 -1.9333 0.95 -3.9333 0.55 -6 -0.4 -2.0667 -1.35 -3.85 -2.85 -5.35 -1.4667 -1.4667 -3.175 -2.4083 -5.125 -2.825 -1.95 -0.4167 -3.875 -0.2917 -5.775 0.375 -0.4 0.1667 -0.8013 0.1722 -1.204 0.0165 -0.403 -0.1553 -0.685 -0.4108 -0.846 -0.7665 -0.2 -0.3827 -0.225 -0.7533 -0.075 -1.112 0.15 -0.3587 0.4083 -0.6213 0.775 -0.788 2.5 -0.9667 5.0333 -1.2 7.6 -0.7s4.8345 1.7345 6.8035 3.7035c1.931 1.931 3.1632 4.1798 3.6965 6.7465 0.5333 2.5667 0.3167 5.1 -0.65 7.6 -0.1667 0.4333 -0.4468 0.7417 -0.8405 0.925 -0.3937 0.1833 -0.8135 0.1917 -1.2595 0.025ZM23.991 6c-0.4273 0 -0.7827 -0.14383 -1.066 -0.4315 -0.2833 -0.28733 -0.425 -0.6435 -0.425 -1.0685v-3c0 -0.425 0.1447 -0.781334 0.434 -1.069 0.289 -0.287334 0.6473 -0.431 1.075 -0.431 0.4273 0 0.7827 0.143666 1.066 0.431 0.2833 0.287666 0.425 0.644 0.425 1.069v3c0 0.425 -0.1447 0.78117 -0.434 1.0685 -0.289 0.28767 -0.6473 0.4315 -1.075 0.4315Zm0 42c-0.4273 0 -0.7827 -0.1438 -1.066 -0.4315 -0.2833 -0.2873 -0.425 -0.6435 -0.425 -1.0685v-3c0 -0.425 0.1447 -0.7813 0.434 -1.069 0.289 -0.2873 0.6473 -0.431 1.075 -0.431 0.4273 0 0.7827 0.1437 1.066 0.431 0.2833 0.2877 0.425 0.644 0.425 1.069v3c0 0.425 -0.1447 0.7812 -0.434 1.0685 -0.289 0.2877 -0.6473 0.4315 -1.075 0.4315ZM36.75 11.2975c-0.3 -0.302 -0.45 -0.6603 -0.45 -1.075 0 -0.415 0.15 -0.7725 0.45 -1.0725l2.1 -2.1c0.3 -0.26667 0.65 -0.40833 1.05 -0.425 0.4 -0.01667 0.75 0.1185 1.05 0.4055 0.3 0.313 0.45 0.67733 0.45 1.093 0 0.41533 -0.15 0.77417 -0.45 1.0765l-2.1 2.1c-0.3 0.3 -0.65 0.45 -1.05 0.45s-0.75 -0.1508 -1.05 -0.4525Zm-29.7 29.672c-0.3 -0.313 -0.45 -0.6773 -0.45 -1.093 0 -0.4153 0.15 -0.7742 0.45 -1.0765l2.1 -2.1c0.3 -0.3 0.65 -0.45 1.05 -0.45s0.75 0.1508 1.05 0.4525c0.3 0.302 0.45 0.6603 0.45 1.075 0 0.415 -0.15 0.7725 -0.45 1.0725l-2.1 2.1c-0.3 0.2667 -0.65 0.4083 -1.05 0.425 -0.4 0.0167 -0.75 -0.1185 -1.05 -0.4055ZM43.5 25.5c-0.425 0 -0.7812 -0.1447 -1.0685 -0.434 -0.2877 -0.289 -0.4315 -0.6473 -0.4315 -1.075 0 -0.4273 0.1438 -0.7827 0.4315 -1.066 0.2873 -0.2833 0.6435 -0.425 1.0685 -0.425h3c0.425 0 0.7813 0.1447 1.069 0.434 0.2873 0.289 0.431 0.6473 0.431 1.075 0 0.4273 -0.1437 0.7827 -0.431 1.066 -0.2877 0.2833 -0.644 0.425 -1.069 0.425h-3Zm-42 0c-0.425 0 -0.781167 -0.1447 -1.0685 -0.434C0.143833 24.777 0 24.4187 0 23.991c0 -0.4273 0.143833 -0.7827 0.4315 -1.066 0.287333 -0.2833 0.6435 -0.425 1.0685 -0.425h3c0.425 0 0.78133 0.1447 1.069 0.434 0.28733 0.289 0.431 0.6473 0.431 1.075 0 0.4273 -0.14367 0.7827 -0.431 1.066 -0.28767 0.2833 -0.644 0.425 -1.069 0.425h-3Zm39.4695 15.45c-0.313 0.3 -0.6773 0.45 -1.093 0.45 -0.4153 0 -0.7742 -0.15 -1.0765 -0.45l-2.1 -2.1c-0.3 -0.3 -0.45 -0.65 -0.45 -1.05s0.1508 -0.75 0.4525 -1.05c0.302 -0.3 0.6603 -0.45 1.075 -0.45 0.415 0 0.7725 0.15 1.0725 0.45l2.1 2.1c0.2667 0.3 0.4083 0.65 0.425 1.05 0.0167 0.4 -0.1185 0.75 -0.4055 1.05Zm-29.672 -29.7c-0.302 0.3 -0.6603 0.45 -1.075 0.45 -0.415 0 -0.7725 -0.15 -1.0725 -0.45l-2.1 -2.1c-0.26667 -0.3 -0.40833 -0.65 -0.425 -1.05 -0.01667 -0.4 0.1185 -0.75 0.4055 -1.05 0.313 -0.3 0.67733 -0.45 1.093 -0.45 0.41533 0 0.77417 0.15 1.0765 0.45l2.1 2.1c0.3 0.3 0.45 0.65 0.45 1.05s-0.1508 0.75 -0.4525 1.05Z" stroke-width="1"></path></svg>